<svg xmlns="http://www.w3.org/2000/svg" width="100" height="100" viewBox="0 0 100 100">
  <g id="グループ_51" data-name="グループ 51" transform="translate(-840 -2693)">
    <path id="パス_33" data-name="パス 33" d="M4.218,1.026a44.739,44.739,0,0,1-.456-7.353V-10.2H12.2a31.178,31.178,0,0,1,5.985.456v-6.5a31.178,31.178,0,0,1-5.985.456H3.762v-1.653l1.881-2.964h6.669a31.178,31.178,0,0,1,5.985.456v-6.5a30.43,30.43,0,0,1-5.985.456H9.12l7.866-12.54c1.026-1.653,3.306-4.9,4.047-5.871H11.172A24.091,24.091,0,0,1,8.436-38.76L0-24.339-8.436-38.817A24.14,24.14,0,0,1-11.172-44.4h-9.8c.855,1.083,2.337,3.306,3.99,5.871l7.923,12.54h-3.192a30.063,30.063,0,0,1-5.985-.456v6.5a30.429,30.429,0,0,1,5.985-.456h6.612L-3.762-17.5v1.71h-8.607a30.8,30.8,0,0,1-5.985-.456v6.5a30.8,30.8,0,0,1,5.985-.456h8.607v3.876a56.465,56.465,0,0,1-.456,7.353Z" transform="translate(889.429 2764.925)" fill="#5ca642" opacity="0.097"/>
    <g id="楕円形_4" data-name="楕円形 4" transform="translate(840 2693)" fill="none" stroke="#5ca642" stroke-width="8" opacity="0.102">
      <circle cx="50" cy="50" r="50" stroke="none"/>
      <circle cx="50" cy="50" r="46" fill="none"/>
    </g>
  </g>
</svg>
