<?xml version="1.0" encoding="utf-8"?>
<!-- Generator: Adobe Illustrator 23.0.1, SVG Export Plug-In . SVG Version: 6.00 Build 0)  -->
<svg version="1.1" id="Layer_1" xmlns="http://www.w3.org/2000/svg" xmlns:xlink="http://www.w3.org/1999/xlink" x="0px"
	y="0px" viewBox="0 0 72 72" style="enable-background:new 0 0 72 72;" xml:space="preserve">
	<style type="text/css">
		.st0 {
			fill-rule: evenodd;
			clip-rule: evenodd;
			fill: #0078A9;
		}
	</style>
	<g>
		<path class="st0" d="M3.17,65.45H2.96c0-0.1-0.05-0.25-0.05-0.3c0-0.05,0-0.15-0.15-0.15H2.45v0.46H2.29v-1.07h0.46
		c0.21,0,0.36,0.05,0.36,0.25c0,0.15-0.05,0.2-0.1,0.25c0.05,0.05,0.1,0.1,0.1,0.2v0.2c0,0.05,0,0.05,0.05,0.05V65.45L3.17,65.45z
		 M2.96,64.69c0-0.15-0.1-0.15-0.15-0.15H2.45v0.3h0.31C2.86,64.84,2.96,64.79,2.96,64.69L2.96,64.69L2.96,64.69z M3.84,64.9
		c0-0.61-0.52-1.12-1.19-1.12c-0.62,0-1.13,0.51-1.13,1.12c0,0.66,0.52,1.17,1.13,1.17C3.32,66.06,3.84,65.56,3.84,64.9L3.84,64.9
		L3.84,64.9z M3.68,64.9c0,0.56-0.46,0.97-1.03,0.97c-0.57,0-0.98-0.41-0.98-0.97c0-0.51,0.41-0.97,0.98-0.97
		C3.22,63.93,3.68,64.39,3.68,64.9L3.68,64.9z" />
		<path class="st0" d="M67.17,44.37c0,1.52-0.98,2.24-2.73,2.24h-3.35v-1.52h3.35c0.31,0,0.57-0.05,0.67-0.15
		c0.1-0.1,0.21-0.25,0.21-0.46c0-0.2-0.1-0.41-0.21-0.51c-0.1-0.1-0.31-0.15-0.62-0.15c-1.6-0.05-3.61,0.05-3.61-2.18
		c0-1.02,0.67-2.13,2.47-2.13h3.45v1.52h-3.19c-0.31,0-0.52,0-0.67,0.1c-0.15,0.15-0.26,0.3-0.26,0.56c0,0.25,0.15,0.41,0.36,0.51
		c0.21,0.05,0.41,0.1,0.67,0.1h0.93c0.98,0,1.6,0.2,2.01,0.56C66.96,43.2,67.17,43.66,67.17,44.37L67.17,44.37L67.17,44.37z
		 M59.9,42.84c-0.41-0.36-1.03-0.56-2.01-0.56h-0.93c-0.26,0-0.46-0.05-0.67-0.1c-0.21-0.1-0.36-0.25-0.36-0.51
		c0-0.25,0.05-0.41,0.26-0.56c0.15-0.1,0.36-0.1,0.67-0.1h3.19v-1.52H56.6c-1.85,0-2.47,1.12-2.47,2.13c0,2.24,2.01,2.13,3.61,2.18
		c0.31,0,0.52,0.05,0.62,0.15c0.1,0.1,0.21,0.3,0.21,0.51c0,0.2-0.1,0.36-0.21,0.46c-0.15,0.1-0.36,0.15-0.67,0.15h-3.35v1.52h3.35
		c1.75,0,2.73-0.71,2.73-2.24C60.42,43.66,60.21,43.2,59.9,42.84L59.9,42.84L59.9,42.84z M53.31,45.13h-4.07v-1.42h3.97v-1.42h-3.97
		v-1.32h4.07v-1.47h-5.77v7.11h5.77V45.13L53.31,45.13z M45.68,39.84c-0.57-0.3-1.24-0.36-2.11-0.36H39.6v7.11h1.75v-2.59h1.86
		c0.62,0,0.98,0.05,1.24,0.3c0.31,0.36,0.31,0.97,0.31,1.42v0.86h1.7v-1.37c0-0.66-0.05-0.97-0.26-1.32
		c-0.15-0.2-0.46-0.46-0.88-0.61c0.46-0.15,1.24-0.76,1.24-1.88C46.56,40.61,46.25,40.15,45.68,39.84L45.68,39.84L45.68,39.84z
		 M35.89,39.49h-5.51l-2.22,2.34l-2.11-2.34h-6.96v7.11h6.85l2.22-2.34l2.11,2.34h3.35v-2.39h2.16c1.49,0,2.99-0.41,2.99-2.39
		C38.78,39.9,37.23,39.49,35.89,39.49L35.89,39.49L35.89,39.49z M44.29,42.44c-0.26,0.1-0.52,0.1-0.82,0.1l-2.11,0.05v-1.63h2.11
		c0.31,0,0.62,0,0.82,0.15c0.21,0.1,0.36,0.3,0.36,0.61C44.65,42.03,44.49,42.28,44.29,42.44L44.29,42.44L44.29,42.44z M35.89,42.79
		h-2.27v-1.83h2.27c0.62,0,1.03,0.25,1.03,0.86C36.92,42.44,36.51,42.79,35.89,42.79L35.89,42.79L35.89,42.79z M29.24,43.05
		l2.68-2.79v5.74L29.24,43.05L29.24,43.05z M25.07,45.13h-4.28v-1.42h3.81v-1.42h-3.81v-1.32h4.33l1.91,2.08L25.07,45.13
		L25.07,45.13z M62.38,34.36H59.9l-3.25-5.34v5.34h-3.5l-0.67-1.58h-3.61l-0.67,1.58H46.2c-0.82,0-1.91-0.2-2.52-0.81
		c-0.57-0.61-0.88-1.42-0.88-2.69c0-1.07,0.15-2.03,0.93-2.79c0.52-0.56,1.44-0.81,2.63-0.81H48v1.52h-1.65
		c-0.62,0-0.98,0.1-1.34,0.41c-0.31,0.3-0.46,0.86-0.46,1.63c0,0.76,0.15,1.32,0.46,1.68c0.26,0.25,0.72,0.36,1.19,0.36h0.77
		l2.47-5.59h2.58l2.89,6.71v-6.71h2.68l3.04,4.93v-4.93h1.75V34.36L62.38,34.36z M41.92,27.24h-1.75v7.11h1.75V27.24L41.92,27.24z
		 M38.26,27.55c-0.57-0.3-1.19-0.3-2.06-0.3h-3.97v7.11h1.7v-2.59h1.85c0.62,0,1.03,0.05,1.29,0.3c0.31,0.36,0.26,0.97,0.26,1.37
		v0.91h1.75v-1.42c0-0.61-0.05-0.91-0.31-1.27c-0.15-0.2-0.46-0.46-0.82-0.61c0.46-0.2,1.24-0.76,1.24-1.88
		C39.19,28.36,38.83,27.9,38.26,27.55L38.26,27.55L38.26,27.55z M30.99,32.88h-4.02v-1.42h3.97v-1.47h-3.97v-1.27h4.02v-1.47h-5.77
		v7.11h5.77V32.88L30.99,32.88z M23.94,27.24H21.1l-2.11,4.83l-2.27-4.83h-2.78v6.71L11,27.24H8.43l-3.09,7.11h1.85l0.67-1.58h3.61
		l0.67,1.58h3.5v-5.59l2.52,5.59h1.49l2.52-5.59v5.59h1.75V27.24L23.94,27.24z M51.86,31.26l-1.19-2.79l-1.19,2.79H51.86
		L51.86,31.26z M36.92,30.14c-0.26,0.15-0.52,0.15-0.88,0.15h-2.11v-1.58h2.11c0.31,0,0.67,0,0.88,0.1
		c0.21,0.15,0.31,0.36,0.31,0.66C37.23,29.78,37.13,30.04,36.92,30.14L36.92,30.14L36.92,30.14z M8.48,31.26l1.19-2.79l1.19,2.79
		H8.48L8.48,31.26z M66.76,4.94H5.28v25.61l2.11-4.73h4.48l0.62,1.17v-1.17h5.26l1.19,2.54l1.13-2.54h16.75
		c0.77,0,1.44,0.15,1.96,0.56v-0.56h4.59v0.56c0.77-0.41,1.75-0.56,2.89-0.56h6.65l0.62,1.17v-1.17h4.9l0.72,1.17v-1.17h4.79v9.96
		h-4.84l-0.93-1.52v1.52h-6.03l-0.67-1.63h-1.49l-0.67,1.63h-3.14c-1.24,0-2.16-0.3-2.78-0.61v0.61h-7.47v-2.29
		c0-0.3-0.05-0.36-0.26-0.36h-0.26v2.64H20.95v-1.27l-0.52,1.27h-3.04l-0.52-1.22v1.22h-5.82l-0.62-1.63H8.94l-0.67,1.63H5.28v30.03
		h61.47V47.57c-0.67,0.3-1.6,0.46-2.52,0.46h-4.48v-0.61c-0.52,0.41-1.44,0.61-2.32,0.61H43.31v-2.29c0-0.3-0.05-0.3-0.31-0.3h-0.26
		v2.59h-4.64v-2.69c-0.77,0.36-1.65,0.36-2.42,0.36h-0.52v2.34H29.5l-1.34-1.52l-1.49,1.52h-9.12v-9.96h9.28l1.34,1.52l1.44-1.52
		h6.23c0.72,0,1.91,0.1,2.42,0.61v-0.61h5.57c0.57,0,1.65,0.1,2.37,0.61v-0.61h8.4v0.61c0.46-0.41,1.34-0.61,2.11-0.61h4.69v0.61
		c0.52-0.36,1.24-0.61,2.16-0.61h3.19V4.94L66.76,4.94z" />
	</g>
</svg>