<svg xmlns="http://www.w3.org/2000/svg" width="208.097" height="183.037" viewBox="0 0 208.097 183.037">
  <g id="k0388_0" transform="translate(-2 -1.759)" opacity="0.101">
    <path id="パス_16" data-name="パス 16" d="M628.406,1.759a4.19,4.19,0,0,1,2.785,1.28l19.323,22.528a4.186,4.186,0,0,1,.84,2.946l-1.257,8.1a2.035,2.035,0,0,1-1.94,1.666H636.92a7.934,7.934,0,0,0-3.17.8L627.4,42.508a2.889,2.889,0,0,1-2.835-.212l-4.451-3.325a5.939,5.939,0,0,0-3.035-1.01h-7.744a2.036,2.036,0,0,0-1.944,1.666l-.267,1.715a2.034,2.034,0,0,1-1.942,1.667h-4.251a1.4,1.4,0,0,1-1.427-1.667L601.3,29.781a3.182,3.182,0,0,1,1.839-2.249l12-4.44a3.166,3.166,0,0,0,1.837-2.251l2.7-17.417a2.039,2.039,0,0,1,1.943-1.666Z" transform="translate(-441.289 0)" fill="#5ca642"/>
    <path id="パス_17" data-name="パス 17" d="M342.5,187.352c-.14.913-.37,2.4-.51,3.306a4.628,4.628,0,0,0,.744,2.994l.146.207a4.637,4.637,0,0,1,.739,3.02l-4.81,31.071a5.539,5.539,0,0,1-1.51,2.8l-2.168,1.957a5.567,5.567,0,0,0-1.508,2.795l-2.2,14.2c-.143.915-.371,2.417-.516,3.33l-1.342,8.678a2.031,2.031,0,0,1-1.941,1.664h-5.941a1.4,1.4,0,0,1-1.428-1.664l.792-5.107a1.405,1.405,0,0,0-1.428-1.666h-7.99a2.234,2.234,0,0,0-2.07,1.642l-1.039,4.359a2.233,2.233,0,0,1-2.07,1.64h-9.53a1.4,1.4,0,0,1-1.429-1.663l.315-2.024a1.4,1.4,0,0,0-1.428-1.667h-9.772a2.04,2.04,0,0,0-1.944,1.667l-.311,2.024a4.206,4.206,0,0,0,.831,2.952l.291.344a4.207,4.207,0,0,1,.827,2.952l-.009.078A5.346,5.346,0,0,1,282.76,270l-9.259,8.016a5.247,5.247,0,0,1-2.955,1.1h-2.96a3.038,3.038,0,0,1-2.456-1.5l-.7-1.382a6.1,6.1,0,0,1-.509-3.164l1.145-7.378c.142-.916.371-2.414.514-3.332l.542-3.482a1.406,1.406,0,0,0-1.429-1.667H228.143a1.4,1.4,0,0,1-1.427-1.666l1.372-8.837a4.619,4.619,0,0,1,1.619-2.652l6.037-4.355a6.092,6.092,0,0,1,3.051-.987h42.877a1.823,1.823,0,0,0,1.872-1.214A4.69,4.69,0,0,1,285,235.184l2.8-2.42A5.323,5.323,0,0,0,289.329,230l1.031-6.649a2.038,2.038,0,0,1,1.942-1.666h4.175a1.4,1.4,0,0,1,1.426,1.666l-.088.562a2.033,2.033,0,0,1-1.941,1.665h-.034a2.037,2.037,0,0,0-1.946,1.667l-.389,2.51c-.143.916.367,1.238,1.129.713l22.011-15.13a4.474,4.474,0,0,0,1.644-2.618L322.3,186.84a2.034,2.034,0,0,1,1.942-1.664h1.988a1.4,1.4,0,0,1,1.424,1.664l-.317,2.026a1.4,1.4,0,0,0,1.428,1.663h6.064a2.038,2.038,0,0,0,1.941-1.663l.14-.925c.143-.914-.288-1.666-.958-1.666s-1.1-.75-.961-1.666l.09-.563a2.034,2.034,0,0,1,1.942-1.666h4.562a1.4,1.4,0,0,1,1.429,1.666Z" transform="translate(-165.954 -133.402)" fill="#5ca642"/>
    <path id="パス_18" data-name="パス 18" d="M259.028,489.763a1.552,1.552,0,0,1,1.418,1.806l-1.372,8.855a5.352,5.352,0,0,1-1.529,2.768l-2.515,2.175a5.246,5.246,0,0,1-2.96,1.1H249.6a4.14,4.14,0,0,1-2.772-1.287l-1.117-1.32a4.114,4.114,0,0,0-2.77-1.286h-1.013a5.25,5.25,0,0,0-2.954,1.1l-5.045,4.367a5.247,5.247,0,0,1-2.956,1.1h-1.257a4.15,4.15,0,0,1-2.772-1.285l-.4-.472a4.2,4.2,0,0,1-.831-2.949l1.164-7.515a4.332,4.332,0,0,1,1.669-2.587l7.607-4.973a6.685,6.685,0,0,1,3.094-.919h1.013a1.325,1.325,0,0,1,1.458,1.461,1.326,1.326,0,0,0,1.458,1.459h3.93a1.825,1.825,0,0,0,1.876-1.218,1.644,1.644,0,0,1,1.864-1.074Z" transform="translate(-165.209 -359.454)" fill="#5ca642"/>
    <path id="パス_19" data-name="パス 19" d="M518.294,302.326a1.924,1.924,0,0,1-1.91,1.461H515.17a1.323,1.323,0,0,1-1.454-1.461,1.915,1.915,0,0,1,1.908-1.462h1.21A1.328,1.328,0,0,1,518.294,302.326Z" transform="translate(-377.928 -220.911)" fill="#5ca642"/>
    <path id="パス_20" data-name="パス 20" d="M107.746,414.747a1.922,1.922,0,0,1-1.911,1.459h-1.209a1.326,1.326,0,0,1-1.459-1.459,1.923,1.923,0,0,1,1.91-1.463h1.211A1.327,1.327,0,0,1,107.746,414.747Z" transform="translate(-74.708 -303.941)" fill="#5ca642"/>
    <path id="パス_21" data-name="パス 21" d="M117.775,439.547A4.126,4.126,0,0,0,115,438.261H93.826a2.031,2.031,0,0,0-1.943,1.663l-2.162,13.962a1.4,1.4,0,0,0,1.426,1.666h3.324a1.86,1.86,0,0,0,1.89-1.325,1.759,1.759,0,0,1,1.755-1.321,1.353,1.353,0,0,1,1.293,1.667l-3.719,24a1.4,1.4,0,0,0,1.426,1.666h1.9a2.037,2.037,0,0,0,1.945-1.666l.088-.572a2.037,2.037,0,0,1,1.943-1.666h1.651A1.4,1.4,0,0,1,106.066,478l-.389,2.5c-.14.916.453,1.4,1.315,1.064l6.242-2.4a3.235,3.235,0,0,0,1.831-2.27l1.339-8.645a10.067,10.067,0,0,1,1.134-3.1l2.053-3.362a10.149,10.149,0,0,0,1.131-3.1l1.79-11.568a4.216,4.216,0,0,0-.826-2.952Z" transform="translate(-64.773 -322.388)" fill="#5ca642"/>
    <path id="パス_22" data-name="パス 22" d="M16.3,681.9a2.036,2.036,0,0,1-1.942,1.665H3.447A1.4,1.4,0,0,1,2.02,681.9l.49-3.159a2.037,2.037,0,0,1,1.944-1.666H15.362a1.4,1.4,0,0,1,1.427,1.666Z" transform="translate(0 -498.771)" fill="#5ca642"/>
  </g>
</svg>
