<svg xmlns="http://www.w3.org/2000/svg" width="119.947" height="85" viewBox="0 0 119.947 85">
  <g id="グループ_49" data-name="グループ 49" transform="translate(-399.9 -2931.208)">
    <rect id="長方形_30" data-name="長方形 30" width="93.358" height="69.477" transform="translate(414.352 2936.187)" fill="none"/>
    <g id="グループ_13" data-name="グループ 13" transform="translate(399.9 2931.208)" opacity="0.102">
      <g id="ネット接続アイコン2" transform="translate(0 0)">
        <path id="パス_7" data-name="パス 7" d="M44.56,150.158h91.363a5.608,5.608,0,0,0,5.589-5.6V80.181a5.607,5.607,0,0,0-5.589-5.6H44.56a5.605,5.605,0,0,0-5.589,5.6v64.382A5.607,5.607,0,0,0,44.56,150.158Zm1.675-68.3h88.012v61.023H46.236Z" transform="translate(-29.544 -74.586)" fill="#5ca642"/>
        <path id="パス_8" data-name="パス 8" d="M0,412.228v1.45a4.583,4.583,0,0,0,4.494,4.642H115.45a4.584,4.584,0,0,0,4.5-4.642v-1.45Z" transform="translate(0 -333.321)" fill="#5ca642"/>
      </g>
    </g>
    <g id="無料のダウンロードのアイコン素材" transform="translate(435.475 2949.178)" opacity="0.099">
      <path id="パス_31" data-name="パス 31" d="M159.444,65.446a1.416,1.416,0,0,0,2.365,0l8.539-11.255a.94.94,0,0,0-.815-1.643h-3.27a1.607,1.607,0,0,1-1.605-1.6V41.659a1.911,1.911,0,0,0-1.908-1.909H158.5a1.911,1.911,0,0,0-1.908,1.909v9.284a1.607,1.607,0,0,1-1.605,1.6H151.72a.941.941,0,0,0-.816,1.643Z" transform="translate(-136.228 -39.75)" fill="#5ca642"/>
      <path id="パス_32" data-name="パス 32" d="M42.432,294.16v10.608H6.365V294.16H0v14.548a2.428,2.428,0,0,0,2.425,2.425H46.372a2.428,2.428,0,0,0,2.425-2.425V294.16Z" transform="translate(0 -269.913)" fill="#5ca642"/>
    </g>
  </g>
</svg>
