<svg xmlns="http://www.w3.org/2000/svg" width="44.568" height="31.583" viewBox="0 0 44.568 31.583">
  <g id="グループ_13" data-name="グループ 13" transform="translate(0 0)">
    <rect id="長方形_30" data-name="長方形 30" width="35" height="25" transform="translate(5.2 1.791)" fill="#fff"/>
    <g id="グループ_13-2" data-name="グループ 13" transform="translate(0 0)">
      <g id="ネット接続アイコン2" transform="translate(0 0)">
        <path id="パス_7" data-name="パス 7" d="M41.059,102.776H75.188a2.094,2.094,0,0,0,2.088-2.087V76.673a2.093,2.093,0,0,0-2.088-2.087H41.059a2.092,2.092,0,0,0-2.088,2.087v24.016A2.093,2.093,0,0,0,41.059,102.776ZM41.685,77.3H74.562v22.763H41.685Z" transform="translate(-35.579 -74.586)" fill="#333"/>
        <path id="パス_8" data-name="パス 8" d="M0,412.228v.522a1.675,1.675,0,0,0,1.67,1.67H42.9a1.675,1.675,0,0,0,1.671-1.67v-.522Z" transform="translate(0 -382.838)" fill="#333"/>
      </g>
      <path id="パス_9" data-name="パス 9" d="M696.916,1677.774l3.067,4.836,7.938-7.205" transform="translate(-678.8 -1664.609)" fill="none" stroke="#333" stroke-linecap="round" stroke-linejoin="round" stroke-width="3"/>
    </g>
  </g>
</svg>
