<svg xmlns="http://www.w3.org/2000/svg" width="135.946" height="101.04" viewBox="0 0 135.946 101.04">
  <g id="グループ_46" data-name="グループ 46" transform="translate(308.973 -2190.48)">
    <g id="会議アイコン2" transform="translate(-308 2099.924)" opacity="0.102">
      <path id="パス_25" data-name="パス 25" d="M12.366,285.319a15.659,15.659,0,0,1-4.61-11.1V258.058H0v16.158A23.494,23.494,0,0,0,23.472,297.69h10.6v-7.758h-10.6A15.643,15.643,0,0,1,12.366,285.319Z" transform="translate(0 -118.889)" fill="#5ca642"/>
      <path id="パス_26" data-name="パス 26" d="M57.016,117.551a10.238,10.238,0,1,0-10.238-10.238A10.23,10.23,0,0,0,57.016,117.551Z" transform="translate(-34.547)" fill="#5ca642"/>
      <path id="パス_27" data-name="パス 27" d="M82.025,220.1H67.663V198.719a10.015,10.015,0,1,0-20.031,0v24.356a10.015,10.015,0,0,0,10.014,10.017c.751,0,18.31-.051,18.31-.051l.961,14.823a5.5,5.5,0,1,0,11-.242l.584-21.052A6.468,6.468,0,0,0,82.025,220.1Z" transform="translate(-35.177 -67.666)" fill="#5ca642"/>
      <path id="パス_28" data-name="パス 28" d="M408.016,258.057v16.158A15.746,15.746,0,0,1,392.3,289.931H381.7v7.758h10.6a23.5,23.5,0,0,0,23.469-23.474V258.057Z" transform="translate(-281.896 -118.888)" fill="#5ca642"/>
      <path id="パス_29" data-name="パス 29" d="M397.159,117.551a10.238,10.238,0,1,0-10.235-10.238A10.235,10.235,0,0,0,397.159,117.551Z" transform="translate(-285.752)" fill="#5ca642"/>
      <path id="パス_30" data-name="パス 30" d="M348.952,223.074V198.718a10.017,10.017,0,1,0-20.033,0V220.1H314.557a6.468,6.468,0,0,0-6.472,6.472l.584,21.052a5.5,5.5,0,1,0,11,.242l.961-14.823s17.558.051,18.31.051A10.017,10.017,0,0,0,348.952,223.074Z" transform="translate(-227.528 -67.666)" fill="#5ca642"/>
      <rect id="長方形_58" data-name="長方形 58" width="55.534" height="9.452" transform="translate(40.176 139.267)" fill="#5ca642"/>
      <rect id="長方形_59" data-name="長方形 59" width="6.462" height="22.878" transform="translate(63.813 153.791)" fill="#5ca642"/>
    </g>
    <line id="線_8" data-name="線 8" x2="133" y2="97" transform="translate(-307.5 2192.5)" fill="none" stroke="#5ca642" stroke-width="5" opacity="0.154"/>
    <line id="線_9" data-name="線 9" x1="133" y2="97" transform="translate(-307.5 2192.5)" fill="none" stroke="#5ca642" stroke-width="5" opacity="0.154"/>
  </g>
</svg>
