<svg xmlns="http://www.w3.org/2000/svg" width="104.482" height="126.477" viewBox="0 0 104.482 126.477">
  <g id="登録のピクトアイコン1" transform="translate(-44.518 0.001)">
    <path id="パス_11" data-name="パス 11" d="M118.588,93.719c-4.041-1.511-5.189-3.864-5.189-6.908V78.823a64.341,64.341,0,0,0,4.32-14.467c3.023-1.079,4.751-2.806,6.908-10.362,1.2-4.2.2-6.125-1.023-7.013a5.663,5.663,0,0,0,.757-1.349c2.59-6.908,5.484-38.51-19.13-40.15C98.258-1.083,90.463-1.9,80.618,3.84S68.46,20.248,67.492,27.633c-1.014,7.716,1.6,19.727,1.6,19.727l.24.034c-.976,1.031-1.589,2.957-.549,6.6,2.157,7.556,3.883,9.283,6.906,10.362,1.3,7.341,3.767,12.366,4.32,14.467v7.988c0,3.044-1.513,5.613-5.188,6.908-7.07,2.493-32.112,9.8-30.195,32.756H148.9C150.814,103.517,125.609,96.347,118.588,93.719Z" transform="translate(0 0)" fill="#fff" opacity="0.697"/>
  </g>
</svg>
